<?xml version="1.0" encoding="UTF-8" standalone="no"?>
<!DOCTYPE svg PUBLIC "-//W3C//DTD SVG 1.1//EN" "http://www.w3.org/Graphics/SVG/1.1/DTD/svg11.dtd">
<svg width="100%" height="100%" viewBox="0 0 512 512" version="1.1" xmlns="http://www.w3.org/2000/svg" xmlns:xlink="http://www.w3.org/1999/xlink" xml:space="preserve" xmlns:serif="http://www.serif.com/" style="fill-rule:evenodd;clip-rule:evenodd;stroke-linejoin:round;stroke-miterlimit:2;">
    <g transform="matrix(1.21013,0,0,1.30633,-81.2909,-131.521)">
        <path d="M278.722,100.68C395.478,100.68 490.27,188.491 490.27,296.649C490.27,404.807 395.478,492.618 278.722,492.618C161.966,492.618 67.175,404.807 67.175,296.649C67.175,188.491 161.966,100.68 278.722,100.68ZM278.722,137.914C373.295,137.914 450.076,209.041 450.076,296.649C450.076,384.257 373.295,455.384 278.722,455.384C184.15,455.384 107.369,384.257 107.369,296.649C107.369,209.041 184.15,137.914 278.722,137.914Z" style="fill:rgb(255,146,0);"/>
    </g>
    <g id="exclamation-solid.afdesign" transform="matrix(0.819121,0,0,0.819121,256,253.665)">
        <g transform="matrix(1,0,0,1,-32,-256)">
            <clipPath id="_clip1">
                <rect x="0" y="0" width="64" height="512"/>
            </clipPath>
            <g clip-path="url(#_clip1)">
                <path d="M64,64C64,46.3 49.7,32 32,32C14.3,32 0,46.3 0,64L0,320C0,337.7 14.3,352 32,352C49.7,352 64,337.7 64,320L64,64ZM32,480C53.943,480 72,461.943 72,440C72,418.057 53.943,400 32,400C10.057,400 -8,418.057 -8,440C-8,461.943 10.057,480 32,480Z" style="fill:rgb(255,146,0);fill-rule:nonzero;"/>
            </g>
        </g>
    </g>
</svg>
