<?xml version="1.0" encoding="UTF-8" standalone="no"?>
<!DOCTYPE svg PUBLIC "-//W3C//DTD SVG 1.1//EN" "http://www.w3.org/Graphics/SVG/1.1/DTD/svg11.dtd">
<svg width="100%" height="100%" viewBox="0 0 512 512" version="1.1" xmlns="http://www.w3.org/2000/svg" xmlns:xlink="http://www.w3.org/1999/xlink" xml:space="preserve" xmlns:serif="http://www.serif.com/" style="fill-rule:evenodd;clip-rule:evenodd;stroke-linejoin:round;stroke-miterlimit:2;">
    <g transform="matrix(1.21013,0,0,1.30633,-81.2909,-131.521)">
        <path d="M278.722,100.68C395.478,100.68 490.27,188.491 490.27,296.649C490.27,404.807 395.478,492.618 278.722,492.618C161.966,492.618 67.175,404.807 67.175,296.649C67.175,188.491 161.966,100.68 278.722,100.68ZM278.722,137.914C373.295,137.914 450.076,209.041 450.076,296.649C450.076,384.257 373.295,455.384 278.722,455.384C184.15,455.384 107.369,384.257 107.369,296.649C107.369,209.041 184.15,137.914 278.722,137.914Z" style="fill:rgb(130,130,130);"/>
    </g>
    <g id="question-solid.afdesign" transform="matrix(0.792265,0,0,0.792265,256,261)">
        <g transform="matrix(1,0,0,1,-160,-256)">
            <path d="M80,160C80,124.7 108.7,96 144,96L176,96C211.3,96 240,124.7 240,160L240,163.6C240,185.4 228.9,205.7 210.6,217.4L168.4,244.5C143.2,260.7 128,288.6 128,318.5L128,320C128,337.7 142.3,352 160,352C177.7,352 192,337.7 192,320L192,318.6C192,310.4 196.2,302.8 203,298.4L245.2,271.3C281.8,247.7 304,207.2 304,163.6L304,160C304,89.3 246.7,32 176,32L144,32C73.3,32 16,89.3 16,160C16,177.7 30.3,192 48,192C65.7,192 80,177.7 80,160ZM160,480C181.943,480 200,461.943 200,440C200,418.057 181.943,400 160,400C138.057,400 120,418.057 120,440C120,461.943 138.057,480 160,480Z" style="fill:rgb(130,130,130);fill-rule:nonzero;"/>
        </g>
    </g>
</svg>
