<?xml version="1.0" encoding="UTF-8" standalone="no"?>
<!DOCTYPE svg PUBLIC "-//W3C//DTD SVG 1.1//EN" "http://www.w3.org/Graphics/SVG/1.1/DTD/svg11.dtd">
<svg width="100%" height="100%" viewBox="0 0 449 464" version="1.1" xmlns="http://www.w3.org/2000/svg" xmlns:xlink="http://www.w3.org/1999/xlink" xml:space="preserve" xmlns:serif="http://www.serif.com/" style="fill-rule:evenodd;clip-rule:evenodd;stroke-linejoin:round;stroke-miterlimit:2;">
    <g transform="matrix(0.965681,0,0,0.999946,-15.4509,-23.9795)">
        <path d="M168,224L40,224C26.7,224 16,213.3 16,200L16,72C16,62.3 21.8,53.5 30.8,49.8C39.8,46.1 50.1,48.1 57,55L98.6,96.6C186.2,10.1 327.3,10.4 414.4,97.6C501.9,185.1 501.9,326.9 414.4,414.4C326.9,501.9 185.1,501.9 97.6,414.4C85.1,401.9 85.1,381.6 97.6,369.1C110.1,356.6 130.4,356.6 142.9,369.1C205.4,431.6 306.7,431.6 369.2,369.1C431.7,306.6 431.7,205.3 369.2,142.8C307,80.6 206.5,80.3 143.9,141.8L185,183C191.9,189.9 193.9,200.2 190.2,209.2C186.5,218.2 177.7,224 168,224Z" style="fill:white;fill-rule:nonzero;"/>
    </g>
</svg>
